<svg fill="none" xmlns="http://www.w3.org/2000/svg" viewBox="0 0 299 299">
  <rect x="1" y="1" width="297" height="297" rx="148.5" fill="#fff" />
  <path d="m151.78 200.852-15.957 51.467-18.237-23.394-29.635 9.356 20.516-53.806M186.202 187.049l24.848 41.875-27.355-2.34-15.957 25.734-20.516-32.752" stroke="#000" stroke-width="3" stroke-miterlimit="10" stroke-linecap="round" stroke-linejoin="round" />
  <path d="M197.372 65.634c3.648 1.17 7.523 5.147 8.663 8.89l4.332 15.44c1.14 3.744 3.418 9.826 5.242 13.336l7.523 14.037c1.824 3.509 1.824 9.124 0 12.632l-7.523 14.037c-1.824 3.509-4.331 9.357-5.242 13.336l-4.333 15.437c-1.141 3.744-5.016 7.72-8.663 8.89l-15.046 4.445c-3.648 1.17-9.574 3.509-12.995 5.381l-13.678 7.72c-3.419 1.872-8.89 1.872-12.309 0l-13.678-7.72c-3.419-1.872-9.118-4.446-12.995-5.381l-15.042-4.445c-3.648-1.17-7.523-5.147-8.663-8.89l-4.332-15.441c-1.14-3.743-3.418-9.825-5.242-13.335l-7.523-14.037c-1.824-3.508-1.824-9.124 0-12.632l7.523-14.037c1.824-3.509 4.331-9.357 5.242-13.335l4.332-15.441c1.14-3.744 5.015-7.72 8.663-8.89l15.046-4.445c3.647-1.17 9.574-3.509 12.994-5.38l13.678-7.72c3.419-1.872 8.891-1.872 12.309 0l13.679 7.72c3.418 1.871 9.117 4.445 12.994 5.38l15.044 4.448Z" stroke="#000" stroke-width="3" stroke-miterlimit="10" stroke-linecap="round" stroke-linejoin="round" />
  <path d="M182.783 83.18c2.507.701 5.242 3.508 6.155 6.316l2.964 10.762c.684 2.574 2.508 6.784 3.648 9.124l5.242 9.825c1.368 2.34 1.368 6.317 0 8.891l-5.242 9.825c-1.368 2.34-2.964 6.55-3.648 9.123l-2.964 10.762c-.684 2.574-3.419 5.381-6.155 6.317l-10.487 3.039c-2.508.701-6.61 2.573-8.891 3.743l-9.574 5.38c-2.28 1.404-6.155 1.404-8.663 0l-9.574-5.38c-2.28-1.403-6.382-3.041-8.89-3.743l-10.487-3.042c-2.507-.702-5.242-3.508-6.155-6.317l-2.963-10.76c-.683-2.574-2.507-6.784-3.647-9.124l-5.243-9.825c-1.368-2.34-1.368-6.317 0-8.89l5.243-9.826c1.367-2.34 2.964-6.55 3.647-9.123l2.964-10.762c.684-2.574 3.419-5.38 6.156-6.317l10.487-3.042c2.507-.701 6.61-2.573 8.89-3.743l9.574-5.38c2.28-1.404 6.155-1.404 8.663 0l9.574 5.38c2.28 1.403 6.383 3.041 8.891 3.743l10.485 3.044Z" stroke="#000" stroke-width="3" stroke-miterlimit="10" stroke-linecap="round" stroke-linejoin="round" />
  <path d="m149.501 140.027-18.237 9.357 3.191-20.352-14.589-14.271 20.288-3.275 9.347-18.247 9.347 18.247 20.288 3.275-14.589 14.271 3.191 20.352-18.237-9.357Z" stroke="#000" stroke-width="3" stroke-miterlimit="10" stroke-linecap="round" stroke-linejoin="round" />
  <rect x="1" y="1" width="297" height="297" rx="148.5" stroke="#000" stroke-width="2" />
</svg>