<svg fill="none" xmlns="http://www.w3.org/2000/svg" viewBox="0 0 200 200">
  <path d="M138.489 115.082h-76.97a1.337 1.337 0 0 1-1.336-1.337c0-.733.603-1.336 1.337-1.336h76.969c.743 0 1.337.603 1.337 1.336 0 .734-.603 1.337-1.337 1.337Z" fill="#000" />
  <path d="M77.645 115.082H66.858a1.337 1.337 0 0 1-1.337-1.336v-12.851c0-.742.603-1.336 1.337-1.336h10.788c.743 0 1.337.603 1.337 1.336v12.851c0 .742-.603 1.336-1.337 1.336Zm-9.451-2.673H76.3v-10.168h-8.106v10.168ZM96.147 115.082H85.36a1.337 1.337 0 0 1-1.337-1.337v-28.26c0-.742.603-1.336 1.337-1.336h10.788c.743 0 1.337.603 1.337 1.337v28.259c0 .743-.603 1.337-1.337 1.337Zm-9.451-2.673h8.106V86.822h-8.106v25.587ZM114.65 115.082h-10.789a1.337 1.337 0 0 1-1.336-1.337v-20.04c0-.742.602-1.336 1.336-1.336h10.789c.742 0 1.336.603 1.336 1.337v20.039c0 .743-.603 1.337-1.336 1.337Zm-9.452-2.673h8.106V95.042h-8.106v17.367ZM133.143 115.082h-10.789a1.337 1.337 0 0 1-1.336-1.337V75.204c0-.743.603-1.337 1.336-1.337h10.789c.742 0 1.336.603 1.336 1.337v38.533c0 .742-.602 1.336-1.336 1.336v.009Zm-9.452-2.664h8.107V76.549h-8.107v35.869Z" fill="#000" />
  <path d="M149.837 133.881H50.163c-5.757 0-10.448-4.682-10.448-10.448V62.948c0-5.757 4.683-10.448 10.448-10.448h99.674c5.757 0 10.448 4.682 10.448 10.448v60.485c0 5.757-4.683 10.448-10.448 10.448Zm-99.674-78.7c-4.28 0-7.766 3.486-7.766 7.767v60.485c0 4.281 3.486 7.766 7.766 7.766h99.674c4.28 0 7.766-3.485 7.766-7.766V62.948c0-4.28-3.486-7.766-7.766-7.766H50.163Z" fill="#000" />
  <path d="M149.837 133.881H50.163c-5.757 0-10.448-4.682-10.448-10.448v-.742c0-.743.603-1.337 1.337-1.337h117.887c.743 0 1.337.603 1.337 1.337v.742c0 5.757-4.682 10.448-10.448 10.448h.009Zm-107.414-9.845c.306 4.001 3.66 7.172 7.749 7.172h99.674c4.079 0 7.442-3.162 7.748-7.172H42.424Z" fill="#000" />
  <path d="M106.377 147.5H93.623a1.337 1.337 0 0 1-1.337-1.337v-13.618c0-.743.603-1.337 1.337-1.337h12.754c.743 0 1.337.603 1.337 1.337v13.618c0 .743-.603 1.337-1.337 1.337Zm-11.409-2.673h10.072v-10.946H94.968v10.946Z" fill="#000" />
  <path d="M118.502 147.5H81.507a1.337 1.337 0 0 1-1.337-1.337c0-.733.603-1.336 1.337-1.336h36.995c.743 0 1.337.603 1.337 1.336 0 .734-.603 1.337-1.337 1.337Z" fill="#000" />
  <rect x="1" y="1" width="198" height="198" rx="99" stroke="#000" stroke-width="2" />
</svg>