<svg xmlns="http://www.w3.org/2000/svg" width="43" height="43" viewBox="0 0 43 43">
  <g id="Group_411" data-name="Group 411" transform="translate(1506 -2628)">
    <g id="Group_404" data-name="Group 404">
      <g id="Group_374" data-name="Group 374" transform="translate(-2506 1393)">
        <g id="Ellipse_15" data-name="Ellipse 15" transform="translate(1000 1235)" fill="#fff" stroke="#707070" stroke-width="1">
          <circle cx="21.5" cy="21.5" r="21.5" stroke="none"/>
          <circle cx="21.5" cy="21.5" r="21" fill="none"/>
        </g>
      </g>
      <g id="_4473007_cog_cog_icon_cog_outline_icon_settings_icon_icon" data-name="4473007_cog_cog icon_cog outline icon_settings icon_icon" transform="translate(-1495.917 2639)">
        <rect id="Cog" width="21" height="21" transform="translate(0.917)" fill="none"/>
        <path id="Path_845" data-name="Path 845" d="M11.613,8.853a.358.358,0,0,1,.12.075q.573.558,1.181,1.078s-.142.132.267-.1a7.876,7.876,0,0,1,2.057-.815l.03-.007q.066-.822.077-1.647a.439.439,0,0,1,.374-.34q.194-.026.389-.045a9.673,9.673,0,0,1,2.255.051.39.39,0,0,1,.331.334c.007.534.031,1.066.073,1.6,0,0-.194-.007.263.115a7.876,7.876,0,0,1,2.031.878l.026.016q.628-.534,1.219-1.11s.228-.207.745.212a9.6,9.6,0,0,1,1.573,1.617.425.425,0,0,1,.05.539q-.56.574-1.078,1.181s-.132-.142.1.268a7.859,7.859,0,0,1,.815,2.057l.007.03q.822.066,1.647.077s.289-.022.352.46a9.672,9.672,0,0,1-.006,2.472c-.022.166-.107.4-.346.417l-.237,0q-.681.016-1.36.069s.007-.194-.115.263a7.875,7.875,0,0,1-.878,2.031l-.016.026q.534.628,1.11,1.219s.207.228-.212.745a9.561,9.561,0,0,1-1.686,1.626c-.345.259-.713-.245-1.117-.612-.234-.212-.572-.5-.572-.5l-.107.065a7.851,7.851,0,0,1-2.179.887l-.03.007q-.066.822-.077,1.647a.439.439,0,0,1-.374.34q-.194.026-.389.045a9.673,9.673,0,0,1-2.255-.051.39.39,0,0,1-.331-.334q0-.119,0-.237-.016-.681-.069-1.36s.194.007-.263-.115a7.855,7.855,0,0,1-2.031-.878l-.026-.016q-.628.534-1.219,1.11a.439.439,0,0,1-.5-.024,9.674,9.674,0,0,1-1.865-1.874.39.39,0,0,1,0-.47q.56-.574,1.078-1.181s.132.142-.1-.267a7.883,7.883,0,0,1-.815-2.057l-.007-.03q-.822-.066-1.647-.077s-.308-.015-.377-.676a9.542,9.542,0,0,1,.043-2.342c.06-.425.676-.331,1.222-.357.315-.016.759-.05.759-.05q.014-.061.03-.122a7.851,7.851,0,0,1,.914-2.168l.016-.026q-.534-.628-1.11-1.219a.439.439,0,0,1,.024-.5,9.679,9.679,0,0,1,1.839-1.839.358.358,0,0,1,.385-.1Zm5.365-1.177q-.465,0-.928.053l-.039,0q0,.128-.007.256a7.386,7.386,0,0,1-.1,1.444c-.07.294-.563.308-.932.42a7.114,7.114,0,0,0-1.866.883.368.368,0,0,1-.4-.022q-.63-.525-1.227-1.093l-.009-.009A9.083,9.083,0,0,0,10.1,10.974l-.05.062a8.23,8.23,0,0,1,1.129,1.275c.158.257-.179.615-.362.956a7.123,7.123,0,0,0-.7,1.943.368.368,0,0,1-.3.268q-.82.074-1.64.1H8.17a9.075,9.075,0,0,0-.009,1.935l.009.079a8.227,8.227,0,0,1,1.7.1c.287.068.305.546.408.89a7.114,7.114,0,0,0,.895,1.907.368.368,0,0,1-.022.4q-.526.631-1.093,1.227l-.009.009A9.084,9.084,0,0,0,11.411,23.5l.062.05a8.23,8.23,0,0,1,1.275-1.129c.257-.158.615.18.956.362a7.113,7.113,0,0,0,1.943.7.368.368,0,0,1,.268.3q.074.817.1,1.64v.013a9.1,9.1,0,0,0,1.935.009l.079-.009a8.226,8.226,0,0,1,.1-1.7c.07-.294.562-.308.932-.42a7.116,7.116,0,0,0,1.866-.883.368.368,0,0,1,.4.022q.633.528,1.227,1.093l.009.009a9.085,9.085,0,0,0,1.375-1.362l.05-.062a8.221,8.221,0,0,1-1.129-1.275c-.158-.257.179-.615.362-.956a7.124,7.124,0,0,0,.7-1.943.368.368,0,0,1,.3-.268q.817-.074,1.64-.1h.013a9.109,9.109,0,0,0,.009-1.935l-.009-.079a8.214,8.214,0,0,1-1.7-.1c-.3-.072-.315-.593-.433-.973a7.041,7.041,0,0,0-.3-.805,7.167,7.167,0,0,0-.565-1.019.368.368,0,0,1,.022-.4q.526-.631,1.093-1.227l.009-.009a9.091,9.091,0,0,0-1.362-1.375l-.062-.05a8.22,8.22,0,0,1-1.275,1.129c-.251.155-.6-.169-.918-.341a7.076,7.076,0,0,0-.821-.379,7.174,7.174,0,0,0-1.16-.336.368.368,0,0,1-.268-.3q-.011-.121-.021-.242-.056-.7-.074-1.4a8.741,8.741,0,0,0-1.048-.07Zm.066,4.873a4.15,4.15,0,0,1,3.935,3.27A4.162,4.162,0,0,1,18.588,20.3a4.174,4.174,0,0,1-5.2-1.968,4.153,4.153,0,0,1,3.557-5.78h.1ZM17,13.22a3.486,3.486,0,0,0-3.306,3.831,3.471,3.471,0,0,0,3.35,2.89A3.489,3.489,0,0,0,20.311,15.9,3.444,3.444,0,0,0,17,13.22Z" transform="translate(-5.823 -5.826)"/>
      </g>
    </g>
  </g>
</svg>
