<svg xmlns="http://www.w3.org/2000/svg" width="43" height="43" viewBox="0 0 43 43">
  <g id="Group_406" data-name="Group 406" transform="translate(1504 -2326)">
    <g id="Group_368" data-name="Group 368" transform="translate(-2456 1496)">
      <g id="Ellipse_1" data-name="Ellipse 1" transform="translate(952 830)" fill="#fff" stroke="#707070" stroke-width="1">
        <circle cx="21.5" cy="21.5" r="21.5" stroke="none"/>
        <circle cx="21.5" cy="21.5" r="21" fill="none"/>
      </g>
      <path id="Path_372" data-name="Path 372" d="M30.664,15.993a3,3,0,0,0-.022-6.005h-.009a3,3,0,0,0-2.3,4.9L26.324,16.9a6.66,6.66,0,0,0-9-.019l-2.008-2.008a2.992,2.992,0,0,0-2.3-4.9H13A3.014,3.014,0,0,0,10.865,15.1a2.967,2.967,0,0,0,2.114.874h.009a2.994,2.994,0,0,0,1.906-.686L16.9,17.3a6.66,6.66,0,0,0-.019,9L14.873,28.31a3,3,0,1,0-1.892,5.32h.009a3,3,0,0,0,2.3-4.9L17.3,26.72a6.659,6.659,0,0,0,9,.019l2.008,2.008a2.992,2.992,0,0,0,2.3,4.9h.009a3.014,3.014,0,0,0,2.136-5.132,2.967,2.967,0,0,0-2.114-.874h-.009a2.994,2.994,0,0,0-1.906.686l-2.007-2.007a6.659,6.659,0,0,0,.019-9l2.008-2.008A3.009,3.009,0,0,0,30.664,15.993ZM28.938,11.28a2.381,2.381,0,0,1,1.7-.7h.007a2.4,2.4,0,1,1-2.4,2.4A2.379,2.379,0,0,1,28.938,11.28Zm-15.953,4.1h-.007a2.38,2.38,0,0,1-1.7-.7A2.422,2.422,0,0,1,13,10.56h.007a2.393,2.393,0,0,1,2.4,2.4,2.43,2.43,0,0,1-2.42,2.42Zm1.7,16.954a2.381,2.381,0,0,1-1.7.7h-.007a2.4,2.4,0,1,1,2.4-2.4A2.379,2.379,0,0,1,14.685,32.337Zm15.953-4.1h.007a2.38,2.38,0,0,1,1.7.7,2.422,2.422,0,0,1-1.719,4.123,2.412,2.412,0,0,1,.017-4.824Zm-8.826-.343a6.082,6.082,0,1,1,6.082-6.082A6.089,6.089,0,0,1,21.812,27.891Z" transform="translate(951.688 829.691)" stroke="#000" stroke-width="0.2"/>
    </g>
  </g>
</svg>
