<svg fill="none" xmlns="http://www.w3.org/2000/svg" viewBox="0 0 200 200">
  <path d="M66.289 147.212H50.852a1.52 1.52 0 0 1-1.52-1.521v-24.174a1.52 1.52 0 0 1 1.52-1.521H66.29c.845 0 1.52.686 1.52 1.521v24.174a1.52 1.52 0 0 1-1.52 1.521Zm-13.916-3.052h12.385v-21.122H52.373v21.122ZM93.912 147.212H78.475a1.52 1.52 0 0 1-1.52-1.521v-37.98a1.52 1.52 0 0 1 1.52-1.521h15.437c.845 0 1.52.686 1.52 1.521v37.98a1.52 1.52 0 0 1-1.52 1.521Zm-13.906-3.052H92.39v-34.929H80.006v34.929ZM121.535 147.212h-15.437a1.521 1.521 0 0 1-1.521-1.521v-24.174c0-.845.686-1.521 1.521-1.521h15.437c.845 0 1.521.686 1.521 1.521v24.174c0 .845-.686 1.521-1.521 1.521Zm-13.906-3.052h12.385v-21.122h-12.385v21.122ZM149.158 147.212h-15.437a1.521 1.521 0 0 1-1.521-1.521V93.894c0-.845.686-1.52 1.521-1.52h15.437a1.52 1.52 0 0 1 1.521 1.52v51.787c0 .845-.686 1.521-1.521 1.521v.01Zm-13.906-3.042h12.385V95.425h-12.385v48.745ZM117.012 101.876a1.522 1.522 0 0 1-1.302-2.306l27.991-46.33a1.522 1.522 0 0 1 2.604 1.57l-27.991 46.33a1.509 1.509 0 0 1-1.302.736ZM109.408 104.182c-.298 0-.586-.089-.855-.258L90.105 91.469a1.52 1.52 0 0 1-.408-2.117 1.53 1.53 0 0 1 2.117-.408l18.449 12.455a1.52 1.52 0 0 1 .408 2.117 1.531 1.531 0 0 1-1.263.676v-.01ZM63.615 106.08a1.52 1.52 0 0 1-.964-2.703l18.07-14.751a1.52 1.52 0 0 1 2.148.219 1.52 1.52 0 0 1-.22 2.147l-18.07 14.751a1.535 1.535 0 0 1-.964.347v-.01Z" fill="#000" />
  <path d="M148.025 66.659a1.528 1.528 0 0 1-1.472-1.123l-2.594-9.642-9.642 2.594a1.524 1.524 0 0 1-.795-2.942l11.113-2.992a1.508 1.508 0 0 1 1.859 1.074l2.992 11.112a1.522 1.522 0 0 1-1.471 1.919h.01ZM154.217 147.5H45.783a1.52 1.52 0 0 1-1.52-1.521c0-.835.685-1.521 1.52-1.521h108.434c.845 0 1.521.686 1.521 1.521 0 .835-.686 1.521-1.521 1.521ZM58.575 114.599c-3.797 0-6.888-3.091-6.888-6.888 0-3.797 3.092-6.889 6.889-6.889s6.888 3.092 6.888 6.889-3.091 6.888-6.889 6.888Zm0-10.725a3.839 3.839 0 0 0-3.836 3.837 3.839 3.839 0 0 0 3.837 3.836 3.839 3.839 0 0 0 3.836-3.836 3.839 3.839 0 0 0-3.837-3.837ZM86.198 93.795c-3.797 0-6.888-3.091-6.888-6.889 0-3.797 3.091-6.888 6.888-6.888 3.798 0 6.889 3.091 6.889 6.888 0 3.797-3.091 6.889-6.889 6.889Zm0-10.725a3.84 3.84 0 0 0-3.836 3.836 3.84 3.84 0 0 0 3.837 3.837 3.84 3.84 0 0 0 3.836-3.837 3.84 3.84 0 0 0-3.837-3.836ZM113.821 112.601c-3.797 0-6.888-3.091-6.888-6.888 0-3.797 3.091-6.889 6.888-6.889 3.797 0 6.889 3.092 6.889 6.889s-3.092 6.888-6.889 6.888Zm0-10.725a3.838 3.838 0 0 0-3.836 3.837 3.838 3.838 0 0 0 3.836 3.836 3.838 3.838 0 0 0 3.837-3.836 3.838 3.838 0 0 0-3.837-3.837Z" fill="#000" />
  <rect x="1" y="1" width="198" height="198" rx="99" stroke="#000" stroke-width="2" />
</svg>