<svg xmlns="http://www.w3.org/2000/svg" width="43" height="43" viewBox="0 0 43 43">
  <g id="Group_403" data-name="Group 403" transform="translate(1506 -2687)">
    <g id="Group_373" data-name="Group 373" transform="translate(-2506 1452)">
      <g id="Ellipse_15" data-name="Ellipse 15" transform="translate(1000 1235)" fill="#fff" stroke="#707070" stroke-width="1">
        <circle cx="21.5" cy="21.5" r="21.5" stroke="none"/>
        <circle cx="21.5" cy="21.5" r="21" fill="none"/>
      </g>
    </g>
    <path id="_211748_folder_icon" data-name="211748_folder_icon" d="M111.41,113.674h-8.739c-.246,0-.56-.518-.968-.994a1.646,1.646,0,0,0-1.073-.68H97.476A1.322,1.322,0,0,0,96,113.272v12.276a1.522,1.522,0,0,0,1.476,1.523H111.41a1.408,1.408,0,0,0,1.334-1.523V114.972A1.222,1.222,0,0,0,111.41,113.674Zm-13.935-.837h2.883a.979.979,0,0,1,.748.434c.633.748.811,1.24,1.565,1.24h8.739c.345,0,.5.115.5.46v1.214H96.837v-2.915C96.837,112.8,97.376,112.837,97.476,112.837Zm13.935,13.4H97.476a.683.683,0,0,1-.638-.685v-8.524h15.07v8.524C111.907,125.861,111.771,126.233,111.41,126.233Z" transform="translate(-1589 2589)"/>
  </g>
</svg>
