<svg xmlns="http://www.w3.org/2000/svg" width="43" height="43" viewBox="0 0 43 43">
  <g id="Group_401" data-name="Group 401" transform="translate(1506 -2807)">
    <g id="Group_381" data-name="Group 381" transform="translate(-2506 1572)">
      <g id="Ellipse_15" data-name="Ellipse 15" transform="translate(1000 1235)" fill="#fff" stroke="#707070" stroke-width="1">
        <circle cx="21.5" cy="21.5" r="21.5" stroke="none"/>
        <circle cx="21.5" cy="21.5" r="21" fill="none"/>
      </g>
    </g>
    <g id="_1370037_settings_spanner_tool_wrench_icon" data-name="1370037_settings_spanner_tool_wrench_icon" transform="translate(-1493.885 2819.015)">
      <g id="Group_383" data-name="Group 383" transform="translate(-0.115 -0.015)">
        <path id="Path_822" data-name="Path 822" d="M18.211,13.78,11.586,7.464c-.193-.193-.6-.266-.557,0s-.31.482-.118.675l.675.292,6.33,6.066a2.5,2.5,0,0,1-.173,3.36,2.268,2.268,0,0,1-1.591.675,2.388,2.388,0,0,1-1.681-.576l-6.5-6.312s3.3-2.156,3.829-3.94a5.791,5.791,0,0,0,.193-2.025A6.2,6.2,0,0,0,6.3-.008a6.573,6.573,0,0,0-2.893.53A.761.761,0,0,0,3.17.908a.323.323,0,0,0,.145.386L6.69,4.717a1.455,1.455,0,0,1,0,2.073,1.549,1.549,0,0,1-2.073,0L1.242,3.367a.492.492,0,0,0-.434-.1.6.6,0,0,0-.386.289,5.568,5.568,0,0,0-.53,2.651,6.084,6.084,0,0,0,5.062,5.833,7.192,7.192,0,0,0,1.012.1A6.426,6.426,0,0,0,7.316,12l6.364,6.315a3.138,3.138,0,0,0,2.266.964,3.059,3.059,0,0,0,2.266-.964A3.2,3.2,0,0,0,18.211,13.78Zm-10.788-2.7a3.789,3.789,0,0,1-2.22.276,5.635,5.635,0,0,1-4.5-5.143A7.793,7.793,0,0,1,1,4.409L3.676,7.095a2.725,2.725,0,0,0,1.79.934A2.367,2.367,0,0,0,7.2,7.306a2.471,2.471,0,0,0-.059-3.492L4.319,1.042A7.594,7.594,0,0,1,6.141.72a5.462,5.462,0,0,1,5.093,4.791,4.586,4.586,0,0,1-.206,1.863,5.545,5.545,0,0,1-3.6,3.7C7.423,11.126,7.472,11.077,7.423,11.077Z" transform="translate(0.115 0.015)"/>
      </g>
    </g>
  </g>
</svg>
