<svg xmlns="http://www.w3.org/2000/svg" width="43" height="43" viewBox="0 0 43 43">
  <g id="Group_410" data-name="Group 410" transform="translate(1506 -2569)">
    <g id="Group_405" data-name="Group 405">
      <g id="Group_375" data-name="Group 375" transform="translate(-2506 1334)">
        <g id="Ellipse_15" data-name="Ellipse 15" transform="translate(1000 1235)" fill="#fff" stroke="#707070" stroke-width="1">
          <circle cx="21.5" cy="21.5" r="21.5" stroke="none"/>
          <circle cx="21.5" cy="21.5" r="21" fill="none"/>
        </g>
      </g>
      <g id="layer1" transform="translate(-1494.991 2580)">
        <path id="Path_818" data-name="Path 818" d="M9.992,2a.5.5,0,0,0-.225.057l-9.5,5a.5.5,0,0,0,0,.887l9.5,5a.5.5,0,0,0,.465,0l9.5-5a.5.5,0,0,0,0-.887l-9.5-5A.5.5,0,0,0,9.992,2ZM10,3.066,18.426,7.5,10,11.936,1.574,7.5ZM.492,10a.5.5,0,0,0-.225.947l9.5,5a.5.5,0,0,0,.465,0l9.5-5a.5.5,0,0,0-.465-.887L10,14.936.732,10.057A.5.5,0,0,0,.492,10Zm0,3a.5.5,0,0,0-.225.947l9.5,5a.5.5,0,0,0,.465,0l9.5-5a.5.5,0,0,0-.465-.887L10,17.936.732,13.057A.5.5,0,0,0,.492,13Z" fill="#222"/>
      </g>
    </g>
  </g>
</svg>
