<svg xmlns="http://www.w3.org/2000/svg" width="43" height="43" viewBox="0 0 43 43">
  <g id="Group_400" data-name="Group 400" transform="translate(1506 -2866)">
    <g id="Group_380" data-name="Group 380" transform="translate(-2506 1631)">
      <g id="Ellipse_15" data-name="Ellipse 15" transform="translate(1000 1235)" fill="#fff" stroke="#707070" stroke-width="1">
        <circle cx="21.5" cy="21.5" r="21.5" stroke="none"/>
        <circle cx="21.5" cy="21.5" r="21" fill="none"/>
      </g>
    </g>
    <g id="search" transform="translate(-1500 2872)">
      <g id="Group_388" data-name="Group 388" transform="translate(5 5)">
        <path id="Path_824" data-name="Path 824" d="M25.9,23.53,20.376,18.01a1.114,1.114,0,0,0-.788-.345,1.032,1.032,0,0,0-.3.049l-.78-.78a7.511,7.511,0,1,0-1.577,1.577l.78.78a1.072,1.072,0,0,0,.3,1.084L23.53,25.9a1.074,1.074,0,0,0,1.577,0l.788-.788A1.074,1.074,0,0,0,25.9,23.53Zm-13.4-3.942a7.1,7.1,0,1,1,7.1-7.1A7.1,7.1,0,0,1,12.491,19.587Zm5.414-.663-.652-.652a7.55,7.55,0,0,0,1.02-1.02l.652.652a1.289,1.289,0,0,0-.126.105l-.788.788A1.289,1.289,0,0,0,17.9,18.924Zm7.712,5.9-.788.788a.681.681,0,0,1-1.02,0L18.289,20.1a.683.683,0,0,1,0-1.02l.788-.788a.681.681,0,0,1,1.02,0l5.519,5.519A.683.683,0,0,1,25.616,24.828Z" transform="translate(-5 -5)" stroke="#000" stroke-width="0.2"/>
        <g id="Group_387" data-name="Group 387" transform="translate(1.183 1.183)">
          <path id="Path_826" data-name="Path 826" d="M14.308,8a6.308,6.308,0,1,0,6.308,6.308A6.315,6.315,0,0,0,14.308,8Zm0,12.222a5.914,5.914,0,1,1,5.914-5.914A5.914,5.914,0,0,1,14.308,20.222Z" transform="translate(-8 -8)" stroke="#000" stroke-width="0.2"/>
        </g>
      </g>
    </g>
  </g>
</svg>
