<svg xmlns="http://www.w3.org/2000/svg" width="43" height="43" viewBox="0 0 43 43">
  <g id="Group_399" data-name="Group 399" transform="translate(1506 -2925)">
    <g id="Group_379" data-name="Group 379" transform="translate(-2506 1690)">
      <g id="Ellipse_15" data-name="Ellipse 15" transform="translate(1000 1235)" fill="#fff" stroke="#707070" stroke-width="1">
        <circle cx="21.5" cy="21.5" r="21.5" stroke="none"/>
        <circle cx="21.5" cy="21.5" r="21" fill="none"/>
      </g>
    </g>
    <path id="_7424569_book_library_knowledge_magazine_literature_icon" data-name="7424569_book_library_knowledge_magazine_literature_icon" d="M91.446,115.6l-1.2-.456v-1.58a.363.363,0,0,0-.273-.351c-5.723-1.466-8.259.37-9.067,1.2-.807-.828-3.342-2.666-9.067-1.2a.363.363,0,0,0-.273.351v1.58l-1.2.456a.363.363,0,0,0-.232.34v12.976a.363.363,0,0,0,.19.319.371.371,0,0,0,.174.044.366.366,0,0,0,.2-.058c4.361-2.827,10.074-1.507,10.131-1.495h.015l.024,0a.15.15,0,0,0,.09,0l.024,0h.015c.058-.013,5.771-1.333,10.131,1.495a.366.366,0,0,0,.2.058.37.37,0,0,0,.174-.044.363.363,0,0,0,.19-.319V115.939A.363.363,0,0,0,91.446,115.6Zm-1.928-1.751V125.5c-4.745-1.107-7.192.116-8.251.978V115.092C81.633,114.643,83.765,112.459,89.517,113.848Zm-17.227,0c5.712-1.379,7.877.8,8.251,1.246v11.387a7.317,7.317,0,0,0-4.745-1.417,15.515,15.515,0,0,0-3.505.439Zm-1.436,14.425V116.189l.71-.269v10.046a.363.363,0,0,0,.453.351c4.242-1.087,6.579-.244,7.709.487A14.738,14.738,0,0,0,70.854,128.274Zm20.1,0a14.748,14.748,0,0,0-8.89-1.466c1.113-.736,3.442-1.589,7.728-.49a.359.359,0,0,0,.313-.065.363.363,0,0,0,.14-.286V115.92l.71.269Z" transform="translate(-1565.13 2825.338)"/>
  </g>
</svg>
