<?xml version="1.0" encoding="utf-8"?>
<!-- Generator: Adobe Illustrator 25.4.1, SVG Export Plug-In . SVG Version: 6.00 Build 0)  -->
<svg version="1.1" id="Layer_1" xmlns="http://www.w3.org/2000/svg" xmlns:xlink="http://www.w3.org/1999/xlink" x="0px" y="0px"
	 viewBox="0 0 1088.8271484 209.8944244" style="enable-background:new 0 0 1088.8271484 209.8944244;" xml:space="preserve">
<style type="text/css">
	.st0{fill:#FFFFFF;}
</style>
<g id="XMLID_00000160901407951074866030000004077945938372412308_">
	<g id="XMLID_00000016755908832030841740000005315224728308911492_">
		<path id="XMLID_00000070077526895352722620000016714586795861172873_" class="st0" d="M253.7480011,52.5219269h-13.8230133
			V43.307766h37.637207v9.2141609h-13.8230286v36.2073669h-9.9911652V52.5219269z"/>
		<path id="XMLID_00000146483253061412898920000007749057076694027180_" class="st0" d="M285.2117004,43.307766h20.766449
			c5.772583,0,10.2501831,1.6214371,13.2340393,4.6070824c2.5332642,2.5297241,3.8957214,6.0990143,3.8957214,10.3814545v0.1295013
			c0,7.333725-3.9595947,11.9408035-9.7357178,14.0820236l11.0981445,16.2214661h-11.6800232l-9.7321777-14.5343933h-0.1312866
			h-7.7204285v14.5343933h-9.9947205V43.307766z M305.3288574,65.3692474c4.8643188,0,7.6565857-2.5953674,7.6565857-6.4236603
			v-0.1295013c0-4.2824402-2.9874268-6.489296-7.8517151-6.489296h-9.9273071v13.0424576H305.3288574z"/>
		<path id="XMLID_00000015317415129086359760000012704521031654242708_" class="st0" d="M347.6920166,42.9831238h9.2141418
			l19.4678955,45.74617h-10.4453125l-4.1547241-10.1880875h-19.2053223l-4.1547241,10.1880875h-10.1863098L347.6920166,42.9831238z
			 M358.2047424,69.7173233l-6.0351562-14.7295341l-6.0351562,14.7295341H358.2047424z"/>
		<path id="XMLID_00000021823314716623860500000015190880816340236957_" class="st0" d="M383.3778076,43.307766h17.7116394
			c14.2771606,0,24.1405945,9.7978096,24.1405945,22.5812645v0.1295013c0,12.7834473-9.8634338,22.710762-24.1405945,22.710762
			h-17.7116394V43.307766z M401.089447,79.7102737c8.1781311,0,13.6917419-5.5153732,13.6917419-13.5622406v-0.1295013
			c0-8.0468712-5.5136108-13.6917419-13.6917419-13.6917419h-7.720459v27.3834839H401.089447z"/>
		<path id="XMLID_00000169549422122196483490000016467012004024443036_" class="st0" d="M434.1142578,43.307766h34.2595215
			v8.8895187h-24.3322144v9.2141647h21.4122009v8.8895226h-21.4122009v9.5388031h24.6586304v8.8895187h-34.5859375V43.307766z"/>
		<path id="XMLID_00000125594877155684426990000018116448325260153749_" class="st0" d="M473.8199463,95.1529541
			c4.4775696-0.4541473,6.6844482-2.7248688,6.3580322-6.4236603h-4.0234375V78.3478394h10.5127258v8.7600174
			c0,8.5648804-4.2824402,12.0028915-12.0028992,12.1341705L473.8199463,95.1529541z"/>
		<path id="XMLID_00000039849600710923216690000000428016887543572628_" class="st0" d="M515.6012573,43.307766h17.7151489
			c14.2771606,0,24.137085,9.7978096,24.137085,22.5812645v0.1295013c0,12.7834473-9.8599243,22.710762-24.137085,22.710762
			h-17.7151489V43.307766z M533.3164062,79.7102737c8.1746216,0,13.6917114-5.5153732,13.6917114-13.5622406v-0.1295013
			c0-8.0468712-5.5170898-13.6917419-13.6917114-13.6917419h-7.720459v27.3834839H533.3164062z"/>
		<path id="XMLID_00000123412029763833895180000008790042374343981247_" class="st0" d="M566.3376465,43.307766h34.2630615
			v8.8895187h-24.3357544v9.2141647h21.4157715v8.8895226h-21.4157715v9.5388031h24.6586304v8.8895187h-34.5859375V43.307766z"/>
		<path id="XMLID_00000031185870666013676210000007433587100774047617_" class="st0" d="M605.9156494,43.307766h11.0307007
			l11.8751831,31.9905663l11.8751831-31.9905663h10.7717285l-18.3644409,45.7461662h-8.8274536L605.9156494,43.307766z"/>
		<path id="XMLID_00000060720148375605613030000015965120127888280708_" class="st0" d="M658.4686279,43.307766h34.2630615
			v8.8895187h-24.3357544v9.2141647h21.4157715v8.8895226h-21.4157715v9.5388031h24.6586304v8.8895187h-34.5859375V43.307766z"/>
		<path id="XMLID_00000141421622029359846560000009243013219052373407_" class="st0" d="M701.9387817,43.307766h9.9946899
			v36.3368645h22.6433716v9.0846634h-32.6380615V43.307766z"/>
		<path id="XMLID_00000055674337026671623900000007170155021314800818_" class="st0" d="M737.4932861,66.1480331v-0.1295013
			c0-12.9129562,10.1863403-23.4895515,24.2009277-23.4895515c14.0181885,0,24.0767822,10.447094,24.0767822,23.3600502v0.1295013
			c0,12.9129562-10.1898804,23.4895477-24.2044678,23.4895477
			C747.5483398,89.5080795,737.4932861,79.0609894,737.4932861,66.1480331z M775.3220825,66.1480331v-0.1295013
			c0-7.7860947-5.7087402-14.2753906-13.7555542-14.2753906c-8.046875,0-13.6279297,6.3580208-13.6279297,14.1458893v0.1295013
			c0,7.786087,5.7122803,14.275383,13.7556152,14.275383C769.7410889,80.2939148,775.3220825,73.9341202,775.3220825,66.1480331z"/>
		<path id="XMLID_00000011020211577259053100000008224427529394046878_" class="st0" d="M794.6516113,43.307766h18.5596313
			c10.8355713,0,17.3887329,6.4236565,17.3887329,15.701683v0.131279c0,10.5109596-8.1745605,15.9624596-18.3644409,15.9624596
			h-7.5891724v13.6261063h-9.994751V43.307766z M812.5619507,66.2136688c4.9956055,0,7.9155884-2.9856415,7.9155884-6.8795776
			v-0.1295013c0-4.4775772-3.1151733-6.8778-8.1107178-6.8778h-7.720459v13.886879H812.5619507z"/>
		<path id="XMLID_00000133486948364481643200000001503836395276893359_" class="st0" d="M837.9940186,43.307766h10.7717285
			l11.9390259,19.2071114l11.9390259-19.2071114h10.7717285v45.4215279h-9.9273071V59.0750885l-12.7834473,19.4022522h-0.2589722
			l-12.6557617-19.2071114v29.4590645h-9.7960205V43.307766z"/>
		<path id="XMLID_00000029009825561363642120000004624750420322245543_" class="st0" d="M894.3079224,43.307766h34.2630615
			v8.8895187h-24.3357544v9.2141647h21.4157715v8.8895226h-21.4157715v9.5388031h24.6586304v8.8895187h-34.5859375V43.307766z"/>
		<path id="XMLID_00000047018697958682975690000015367186418564327053_" class="st0" d="M937.7780762,43.307766h9.2141113
			l21.2844849,27.9671288V43.307766h9.8634644v45.4215279h-8.5010376l-21.9976196-28.8754196v28.8754196h-9.8634033V43.307766z"/>
		<path id="XMLID_00000058579747213824189310000007764598126549035693_" class="st0" d="M999.6126099,52.5219269h-13.822998
			V43.307766h37.637207v9.2141609h-13.822998v36.2073669h-9.9912109V52.5219269z"/>
		<path id="XMLID_00000068636886664056927970000000140488018514583721_" class="st0" d="M1075.8449707,84.3173523
			c-3.6970215,3.0495071-8.046875,5.0612259-13.3013916,5.0612259c-8.696167,0-15.2493896-5.0612259-15.2493896-13.1080933
			v-0.1295013c0-5.7743759,3.1152344-9.8634491,8.8239746-12.4588127c-2.2033691-3.1151466-3.1790771-5.9695168-3.1790771-9.0846596
			v-0.1295052c0-6.2302895,4.9956055-11.9390259,13.7591553-11.9390259c7.720459,0,12.7799072,5.0612259,12.7799072,11.4192467
			v0.1312752c0,6.0990143-3.8920898,9.6683044-9.5369873,11.8733864l6.0351562,6.0351562
			c1.4901123-2.3363571,2.9838867-4.9955902,4.4101562-7.7860947l7.3337402,4.0234375
			c-1.7528076,3.1790085-3.6970215,6.5531616-5.9677734,9.6026688l6.6809082,6.684433l-7.3302002,5.1250916L1075.8449707,84.3173523
			z M1070.2640381,78.606842l-8.692627-8.8256531c-2.9874268,1.5575714-4.2186279,3.7644272-4.2186279,5.971283v0.1295013
			c0,3.1790161,2.6610107,5.3202362,6.3580322,5.3202362C1065.9815674,81.2022095,1068.1884766,80.2300568,1070.2640381,78.606842z
			 M1070.7855225,54.663147v-0.1295013c0-2.5971375-1.7526855-4.2185745-4.2823486-4.2185745
			c-2.6610107,0-4.4138184,1.8822136-4.4138184,4.6070824v0.1295013c0,2.0117149,0.7770996,3.5036507,2.6610107,5.6448708
			C1068.7064209,59.2045898,1070.7855225,57.5175171,1070.7855225,54.663147z"/>
		<path id="XMLID_00000075154757620487899890000016895770395811063194_" class="st0" d="M253.7480011,130.3775177h-13.8230133
			v-9.2141571h37.637207v9.2141571h-13.8230286v36.209137h-9.9911652V130.3775177z"/>
		<path id="XMLID_00000168834079278996746870000008347833800823476641_" class="st0" d="M286.5102539,121.1633606h9.9947205
			v17.9741821h18.4283142v-17.9741821h9.9911804v45.4232941h-9.9911804v-18.2331848h-18.4283142v18.2331848h-9.9947205V121.1633606z
			"/>
		<path id="XMLID_00000026855327443545567060000017656453945937330819_" class="st0" d="M337.1154175,121.1633606h34.2630615
			v8.8912964h-24.3357544v9.2141571h21.415741v8.8895264h-21.415741v9.5388031h24.6586304v8.8895111h-34.5859375V121.1633606z"/>
		<path id="XMLID_00000078009060877719205640000014800860677659517833_" class="st0" d="M402.6470337,121.1633606h34.259491
			v8.8912964h-24.3321838v9.2141571h21.4121704v8.8895264h-21.4121704v9.5388031h24.6585999v8.8895111h-34.585907V121.1633606z"/>
		<path id="XMLID_00000108990638120421348910000012355752783862335935_" class="st0" d="M447.4121704,121.1633606h9.2141724
			l21.2844543,27.9671326v-27.9671326h9.8634338v45.4232941h-8.5010071l-21.9976196-28.875412v28.875412h-9.8634338V121.1633606z"/>
		<path id="XMLID_00000047740393206594690740000008802477255819565449_" class="st0" d="M496.0730286,121.1633606h11.0307312
			l11.8751831,31.9905701l11.8751221-31.9905701h10.7717896l-18.364502,45.7479401H514.43396L496.0730286,121.1633606z"/>
		<path id="XMLID_00000109747015979419597830000009141187972413146805_" class="st0" d="M550.3787231,121.1633606h9.9912109
			v45.4232941h-9.9912109V121.1633606z"/>
		<path id="XMLID_00000051375506667465904480000014605814766640444082_" class="st0" d="M573.0220947,121.1633606h20.7629395
			c5.776123,0,10.2537231,1.6232071,13.2375488,4.6070786c2.5297241,2.5315018,3.8922119,6.1007919,3.8922119,10.3832321v0.1295013
			c0,7.3319397-3.9560547,11.9390259-9.7321777,14.080246l11.0946045,16.2232361H600.597168l-9.7321777-14.5361633h-0.1312866
			h-7.7203979v14.5361633h-9.9912109V121.1633606z M593.1357422,143.2266083c4.8678589,0,7.6565552-2.5953674,7.6565552-6.4236603
			v-0.1312714c0-4.2824402-2.9838257-6.4875183-7.8516846-6.4875183h-9.9273071v13.04245H593.1357422z"/>
		<path id="XMLID_00000000945273783565190510000002907235422369345460_" class="st0" d="M619.2171021,144.0054016v-0.1295013
			c0-12.9129639,10.1862793-23.4913254,24.2009277-23.4913254c14.0181274,0,24.0767212,10.4470901,24.0767212,23.3600388v0.1312866
			c0,12.9129486-10.1898804,23.4895477-24.2044678,23.4895477
			C629.2721558,167.365448,619.2171021,156.9183502,619.2171021,144.0054016z M657.0458984,144.0054016v-0.1295013
			c0-7.7878723-5.7087402-14.2771606-13.7556152-14.2771606s-13.6278687,6.359787-13.6278687,14.145874v0.1312866
			c0,7.786087,5.7122803,14.2753906,13.7556152,14.2753906
			C651.4649048,158.1512909,657.0458984,151.7914886,657.0458984,144.0054016z"/>
		<path id="XMLID_00000121272785103849536820000001409752820965284746_" class="st0" d="M677.6740112,121.1633606h9.2141113
			l21.2809448,27.9671326v-27.9671326h9.8634644v45.4232941h-8.5010376l-21.9976196-28.875412v28.875412h-9.8598633V121.1633606z"/>
		<path id="XMLID_00000083064329350526175380000009610462515608854204_" class="st0" d="M730.2269897,121.1633606h10.7717285
			l11.9390259,19.2071075l11.9390259-19.2071075h10.7717285v45.4232941h-9.9273071v-29.6542053l-12.7834473,19.4022522h-0.2589722
			l-12.6557617-19.2071075v29.4590607h-9.7960205V121.1633606z"/>
		<path id="XMLID_00000149380035580981128300000010218954025645123222_" class="st0" d="M787.8394775,121.1633606h34.2630615
			v8.8912964h-24.3357544v9.2141571h21.4157104v8.8895264h-21.4157104v9.5388031h24.6586304v8.8895111h-34.5859375V121.1633606z"/>
		<path id="XMLID_00000005228333982213481580000015746683259212734106_" class="st0" d="M832.6081543,121.1633606h9.2141724
			l21.2808838,27.9671326v-27.9671326h9.8634644v45.4232941h-8.5009766l-21.9976196-28.875412v28.875412h-9.8599243V121.1633606z"/>
		<path id="XMLID_00000028322474262038423580000001199867101795115178_" class="st0" d="M895.737793,130.3775177h-13.8230591
			v-9.2141571h37.637207v9.2141571h-13.822998v36.209137h-9.9911499V130.3775177z"/>
		<path id="XMLID_00000034082433525993389670000006168546848136228009_" class="st0" d="M949.2629395,121.1633606h9.9911499
			v17.9741821h18.4283447v-17.9741821h9.9946899v45.4232941h-9.9946899v-18.2331848h-18.4283447v18.2331848h-9.9911499V121.1633606z
			"/>
		<path id="XMLID_00000054228825879848757410000005512087762303064482_" class="st0" d="M999.1549683,147.1205444v-25.9571838
			h9.9911499v25.6964111c0,7.397583,3.7005615,11.2258759,9.7995605,11.2258759s9.7995605-3.6987915,9.7995605-10.9012451
			v-26.0210419h9.9912109v25.6325378c0,13.7556152-7.720459,20.5039062-19.9219971,20.5039062
			C1006.616394,167.2998047,999.1549683,160.4876404,999.1549683,147.1205444z"/>
		<path id="XMLID_00000077302564731284123390000006441823757691357860_" class="st0" d="M1050.2177734,121.1633606h21.0858154
			c5.1942139,0,9.2816162,1.4280701,11.8751221,4.0234299c2.0791016,2.0773621,3.1151123,4.6070786,3.1151123,7.7222366v0.1295013
			c0,5.1268616-2.7248535,7.9812317-5.9676514,9.7978058c5.2545166,2.0117188,8.5009766,5.0630035,8.5009766,11.1620178v0.1295013
			c0,8.3058777-6.7518311,12.4588013-17.0020752,12.4588013h-21.6072998V121.1633606z M1069.1641846,139.5278168
			c4.4136963,0,7.2023926-1.4280701,7.2023926-4.8022156v-0.1295013c0-2.9856415-2.3345947-4.6727295-6.5532227-4.6727295
			h-9.8634033v9.6044464H1069.1641846z M1071.8250732,157.8266449c4.4102783,0,7.071167-1.5575714,7.071167-4.9317322v-0.1295013
			c0-3.0494995-2.2706299-4.9317169-7.397583-4.9317169h-11.5487061v9.9929504H1071.8250732z"/>
	</g>
	<path id="XMLID_00000006673555188770877860000013146175492576467639_" class="st0" d="M99.9589767,101.5544205
		c0,0-65.1272659,58.2476273-71.5482635,105.0291672H2.2680795
		C2.2680795,206.5835876,27.4934273,132.7421265,99.9589767,101.5544205z"/>
	<path id="XMLID_00000001634849725486856010000006789143540698680501_" class="st0" d="M110.7853317,0.4941584
		C108.7513199,0.1723417,106.7056656,0,104.6370087,0c-2.0686646,0-4.1143188,0.1723417-6.1369705,0.4941584
		C43.6475487,3.6889677,0,49.313221,0,104.9472504c0,14.5491562,2.9765942,28.3973083,8.3663931,40.9928436
		c0.1035309,0.2527924,0.2067814,0.4941559,0.3218164,0.7469482c1.0113239-1.2296143,4.5623903-5.4588165,10.3545303-11.3542786
		c-1.4940491-4.2177124-2.6892891-8.5847473-3.5627108-13.0552521c-0.6663599-3.4131622-1.137722-6.8953476-1.4020214-10.4349136
		h4.0172377c0.742115-0.908493,1.5024662-1.8136215,2.3161259-2.7078018
		c3.4061508-3.747467,7.4088001-7.4617615,11.9286823-11.082901H14.0780077
		c2.5168772-33.3620377,23.1225471-61.7479134,52.0139427-75.3431931c-2.1375427,2.9190063-4.1715546,6.1023827-6.09095,9.5500584
		c-8.8416824,15.8811073-14.4400864,35.9226151-16.220459,57.5554581c3.8581505-2.5185623,7.9763947-4.9963684,12.3140488-7.3865662
		c0.8476067-0.4687653,1.7290268-0.9328995,2.598381-1.3986511c5.0368385-34.0906143,20.4892273-60.8302307,39.0486832-66.2269745
		v48.9820747c3.9992828-1.4699211,8.1065826-2.906311,12.5247574-4.3718109
		c0.4256287-0.141407,0.8439636-0.277626,1.2659454-0.4163704V14.8020258
		c12.4083176,3.6083021,23.4230423,16.7366447,30.8690109,35.2212524c0.1544495-0.038929,0.317749-0.0805931,0.4687042-0.1184692
		c5.4924774-1.3815384,8.7280426-2.0633316,8.8627167-2.0919495l4.3382111-0.9111595
		c-1.9903717-5.1815453-4.2582397-10.085041-6.7979889-14.6429405c-1.9194031-3.4476757-3.9533997-6.631052-6.0909424-9.5500584
		c28.9028931,13.5952816,49.4970551,41.9811554,52.0139313,75.3431931h-29.2018433
		c-0.6478424-17.4532928-3.7488708-34.0920181-9.004837-48.6606064l-0.453125,2.9651604
		c-1.0751495,7.0361977-2.2748871,13.9657784-3.5677643,20.5962715c-0.6687469,3.4148483-1.3781738,6.7558365-2.1062622,10.0541077
		c0.6590729,4.8877106,1.1138763,9.9135361,1.3297729,15.0450668h-4.9598083
		c-0.0904846,0.3425827-0.1767731,0.6996078-0.2679596,1.0400848c-1.1189117,4.2322235-2.3301544,8.4235611-3.6757812,12.750618
		h8.9035492c-1.7353363,41.9467239-19.1001129,76.998085-40.659584,83.2612991v-19.5108643
		c-3.559906,4.3622742-7.2828217,8.2900085-11.1117935,11.7087097c-0.8815613,0.7881317-1.7761688,1.5460205-2.6789093,2.2809906
		v5.5211639c-2.9420853-0.861908-5.8036423-2.2524261-8.5616684-4.1256714
		c-2.39048-1.6204529-4.6889267-3.5970764-6.8953552-5.8955383c-6.1829758,6.2747955-13.0323105,11.5267029-20.594162,15.2616882
		c0.3103142,0.1493988,0.6089821,0.2872925,0.9192963,0.4137726c11.0901871,4.8957062,23.1914215,7.906662,35.8789139,8.6421204
		c2.0340118,0.333313,4.0796661,0.4941559,6.1483307,0.4941559c2.0686569,0,4.1258163-0.1608429,6.1483231-0.4941559
		c54.8411331-3.194809,98.4886856-48.8190613,98.4886856-104.4530182
		C209.2740173,49.313221,165.6264648,3.6889677,110.7853317,0.4941584z M143.1820679,187.185791
		c2.1375427-2.9190674,4.1715393-6.1023712,6.0909424-9.5500488c9.9636993-17.8705139,15.8018494-41.027359,16.7211456-65.7931442
		h29.2018433C192.6791229,145.2045746,172.0734558,173.5904388,143.1820679,187.185791z"/>
	<path id="XMLID_00000032619637620327911180000015370550660152327056_" class="st0" d="M152.5596313,51.7495728
		c-1.0917053,7.1482162-2.2754364,13.9516068-3.5395508,20.4332581c-1.8157349,9.2742538-3.8038635,17.8819351-5.9415436,25.8690643
		c-1.2754974,4.8266907-2.6202698,9.4121552-3.9992828,13.7907028c-8.1479797,25.8575668-17.824501,44.2106552-27.5468979,57.219902
		c-4.6429138,6.2172699-9.2858276,11.2164459-13.7907028,15.2387238c-2.9305801,2.6202087-5.8036423,4.826767-8.5616684,6.677002
		c-12.4116898,8.3663177-22.6283188,9.6305084-26.5702209,9.7799225c-1.137722,0.0459442-1.7468452,0-1.7468452,0
		c0.2759438-0.1379089,0.5517464-0.2643738,0.827549-0.4137726c7.5618515-3.7349854,14.4111862-8.9868927,20.594162-15.2616882
		c5.7001114-5.7691193,10.8371201-12.3886719,15.4570236-19.4793701c5.252037-8.056076,9.8259354-16.7212219,13.7907028-25.4208527
		c4.4131241-9.6764679,8.056076-19.3759232,11.0211716-28.3398666c1.6088028-4.8612671,3.0223236-9.5041122,4.2405701-13.7907028
		c4.5163727-15.8707962,6.4586487-26.9953537,6.4586487-26.9953537c-7.492981,1.3331375-14.7445145,3.1603699-21.7203903,5.3784332
		c-4.7232971,1.4939804-9.3317032,3.1718063-13.7907028,4.9876022
		C85.9736023,86.203392,75.1364822,91.9609451,65.3795776,98.0518951
		c-8.1135979,5.0680542-15.4801712,10.3544617-22.0193367,15.5145416
		c-10.2049828,8.0445786-18.4219704,15.767334-24.3175011,21.7663269c-5.79214,5.895462-9.3432064,10.1246643-10.3545303,11.3542786
		c-0.2067823,0.2528687-0.3103132,0.3792725-0.3103132,0.3792725c-0.0115032-0.3792725-0.0115032-0.7584686-0.0115032-1.1262207
		c0.0690203-8.4697876,2.6662807-16.3534546,7.113636-23.6625824c2.2067022-3.620018,4.8727026-7.1022034,7.9068155-10.4349136
		c4.4588585-4.9072113,9.733902-9.5041122,15.5490494-13.7907028c1.4593964-1.0802689,2.9648094-2.1376114,4.4933701-3.1833725
		c4.6314087-3.1488647,9.5386238-6.1253891,14.6066055-8.9179993c12.8025246-7.0791931,26.6621056-13.0207443,39.7057838-17.8819427
		c4.7232971-1.7582779,9.3547134-3.367218,13.7907028-4.8382607c13.3196182-4.4244881,24.8921127-7.5618515,32.3162003-9.4235916
		C149.3303833,52.4276466,152.5596313,51.7495728,152.5596313,51.7495728z"/>
</g>
</svg>
