<svg xmlns="http://www.w3.org/2000/svg" xmlns:xlink="http://www.w3.org/1999/xlink" width="145.383" height="42.627" viewBox="0 0 145.383 42.627"><defs><style>.a{fill:#fff;}.b{clip-path:url(#a);}.c{clip-path:url(#b);}.d{fill:#1b1b24;}</style><clipPath id="a"><path class="a" d="M170.463,63.337h6.767v7.734h-6.767Zm0,0" transform="translate(-170.463 -63.337)"/></clipPath><clipPath id="b"><path d="M44.329,39.9H87.561V82.524H44.329Zm0,0" transform="translate(-44.329 -39.897)"/></clipPath></defs><g transform="translate(0 0)"><path class="a" d="M99.352,53.973c0,2.974-1.759,4.219-3.89,4.219s-3.914-1.245-3.914-4.219V48.438h1.923v5.4c0,1.578.665,2.531,1.991,2.531s1.967-.953,1.967-2.531v-5.4h1.923" transform="translate(-39.656 -39.052)"/><path class="a" d="M102.842,54.043h-.8v4.082h-1.856V48.438h1.856v3.807h.772l2.45-3.807h2.118l-3.018,4.706,3.431,4.981h-2.128" transform="translate(-38.802 -39.052)"/><path class="a" d="M113.274,52.852h1.521a1.313,1.313,0,0,0,1.316-1.41,1.213,1.213,0,0,0-1.316-1.276h-1.521m3.209,7.959-2.061-3.558h-1.148v3.558h-1.759V48.438h3.417a2.869,2.869,0,0,1,3,2.974,3.078,3.078,0,0,1-1.745,2.823l2.34,3.89" transform="translate(-37.68 -39.052)"/><path class="a" d="M120.006,53.548h3.112A1.4,1.4,0,0,0,121.65,52.4a1.711,1.711,0,0,0-1.645,1.148m4.938,1.4h-5.049a1.752,1.752,0,0,0,1.813,1.44,1.637,1.637,0,0,0,1.343-.584h1.742a3.293,3.293,0,0,1-3.142,2.145,3.471,3.471,0,0,1-3.5-3.582,3.368,3.368,0,0,1,3.447-3.474c1.772,0,3.568,1.232,3.347,4.055" transform="translate(-37.024 -38.809)"/><path class="a" d="M128.025,52.36c-.584,0-.832.289-.832.581,0,.47.624.611,1.041.691,1.229.262,2.477.638,2.477,2.1a2.312,2.312,0,0,1-2.6,2.212,2.677,2.677,0,0,1-2.907-2.434h1.7a1.044,1.044,0,0,0,1.161.953c.7,0,.873-.373.873-.665,0-.51-.483-.665-.957-.772-.816-.181-2.571-.514-2.571-2.091,0-1.356,1.3-2.048,2.642-2.048A2.43,2.43,0,0,1,130.71,53h-1.705a.884.884,0,0,0-.98-.638" transform="translate(-36.326 -38.809)"/><path class="a" d="M132.846,53.548h3.115a1.4,1.4,0,0,0-1.467-1.148,1.716,1.716,0,0,0-1.648,1.148m4.941,1.4h-5.052a1.755,1.755,0,0,0,1.813,1.44,1.63,1.63,0,0,0,1.343-.584h1.742a3.286,3.286,0,0,1-3.139,2.145,3.469,3.469,0,0,1-3.5-3.582,3.366,3.366,0,0,1,3.444-3.474c1.772,0,3.572,1.232,3.35,4.055" transform="translate(-35.753 -38.809)"/><path class="a" d="M142.253,54.975v-.138c-1.259.138-2.5.289-2.5,1.01,0,1.051,2.393.967,2.5-.873m2.521,1.578v1.329h-.416a1.55,1.55,0,0,1-1.6-.886,2.535,2.535,0,0,1-2.189.953c-1.561,0-2.558-.8-2.558-2.048,0-2.158,2.947-2.35,4.273-2.42-.027-.8-.47-1.094-1.175-1.094-.984,0-1.051.594-1.051.594h-1.729c.124-1.229,1.131-2.088,2.823-2.088a2.527,2.527,0,0,1,2.806,2.823v1.839c0,.8.292,1,.819,1" transform="translate(-35.059 -38.809)"/><path class="a" d="M149.523,50.893v1.772a3.2,3.2,0,0,0-.611-.057,1.771,1.771,0,0,0-1.977,1.772v3.5h-1.843V50.964h1.413l.248.759h.222a2.935,2.935,0,0,1,2.118-.829" transform="translate(-34.358 -38.809)"/><path class="a" d="M153,57.949a3.456,3.456,0,0,1-3.5-3.514,3.51,3.51,0,0,1,3.572-3.541,3.317,3.317,0,0,1,3.306,2.6H154.5a1.6,1.6,0,0,0-1.467-.926,1.858,1.858,0,0,0,0,3.709,1.6,1.6,0,0,0,1.413-.832h1.893a3.358,3.358,0,0,1-3.333,2.5" transform="translate(-33.921 -38.809)"/><path class="a" d="M163.393,54.388v3.749H161.54V54.8c0-.678.111-2.048-1.135-2.048-.611,0-1.786.319-1.786,2.132v3.253h-1.856V48.312h1.759v3.625h.235a2.69,2.69,0,0,1,1.994-.789c1.782,0,2.642,1.329,2.642,3.239" transform="translate(-33.203 -39.064)"/><path class="a" d="M95.669,67.874v-.141c-1.259.141-2.5.292-2.5,1.01,0,1.051,2.393.97,2.5-.869m2.518,1.574v1.329h-.413a1.543,1.543,0,0,1-1.6-.886,2.536,2.536,0,0,1-2.189.957c-1.564,0-2.558-.8-2.558-2.048,0-2.158,2.947-2.353,4.273-2.424-.027-.8-.47-1.091-1.175-1.091-.984,0-1.051.594-1.051.594H91.738c.124-1.232,1.135-2.088,2.823-2.088a2.527,2.527,0,0,1,2.81,2.82v1.843c0,.8.292.994.816.994" transform="translate(-39.669 -37.533)"/><path class="a" d="M105.152,67.028v3.749h-1.839V67.445c0-.235.164-1.98-1.165-2.048-.648-.044-1.813.319-1.813,2.132v3.249H98.509V63.86h1.413l.235.846h.235a2.634,2.634,0,0,1,2.1-.916c1.786,0,2.659,1.329,2.659,3.239" transform="translate(-38.968 -37.533)"/><path class="a" d="M110.643,67.576c0-1.148-.621-1.829-1.521-1.829a1.833,1.833,0,0,0,0,3.655c.9,0,1.521-.678,1.521-1.826m1.732-6.368v9.825h-1.356l-.195-.665h-.208a2.275,2.275,0,0,1-1.756.735,3.542,3.542,0,0,1,0-7.056,2.3,2.3,0,0,1,1.782.745V61.208" transform="translate(-38.262 -37.788)"/><path class="a" d="M118.6,71.021h-1.923V61.336H118.6Zm0,0" transform="translate(-37.17 -37.776)"/><path class="a" d="M126.631,67.028v3.749h-1.839V67.445c0-.235.164-1.98-1.165-2.048-.651-.044-1.813.319-1.813,2.132v3.249h-1.826V63.86h1.41l.238.846h.235a2.634,2.634,0,0,1,2.1-.916c1.786,0,2.659,1.329,2.659,3.239" transform="translate(-36.842 -37.533)"/><path class="a" d="M134.032,67.028v3.749h-1.839V67.445c0-.235.168-1.98-1.161-2.048-.651-.044-1.813.319-1.813,2.132v3.249h-1.826V63.86h1.41l.238.846h.232a2.648,2.648,0,0,1,2.1-.916c1.786,0,2.655,1.329,2.655,3.239" transform="translate(-36.109 -37.533)"/><path class="a" d="M139.775,67.32a1.737,1.737,0,0,0-1.688-1.927,1.933,1.933,0,0,0,0,3.85,1.735,1.735,0,0,0,1.688-1.923m-5.257.013a3.464,3.464,0,0,1,3.568-3.541,3.4,3.4,0,0,1,3.5,3.514,3.456,3.456,0,0,1-3.555,3.541,3.408,3.408,0,0,1-3.514-3.514" transform="translate(-35.404 -37.533)"/><path class="a" d="M148.472,63.853l-2.242,6.918h-2.685L141.3,63.853h1.843l1.6,5.092h.275l1.608-5.092" transform="translate(-34.733 -37.526)"/><path class="a" d="M152.629,67.874v-.141c-1.259.141-2.5.292-2.5,1.01,0,1.051,2.393.97,2.5-.869m2.518,1.574v1.329h-.416a1.546,1.546,0,0,1-1.6-.886,2.534,2.534,0,0,1-2.185.957c-1.564,0-2.561-.8-2.561-2.048,0-2.158,2.947-2.353,4.276-2.424-.027-.8-.47-1.091-1.175-1.091-.984,0-1.054.594-1.054.594H148.7c.124-1.232,1.135-2.088,2.823-2.088a2.526,2.526,0,0,1,2.806,2.82v1.843c0,.8.292.994.819.994" transform="translate(-34.032 -37.533)"/><path class="a" d="M160.094,70.448a2.44,2.44,0,0,1-1.648.581,2.337,2.337,0,0,1-2.477-2.3V65.52h-1.383V64.164h.691a.754.754,0,0,0,.789-.816V61.966h1.675V64.04h1.745v1.48h-1.745v3.1a.845.845,0,0,0,.886.829,1.781,1.781,0,0,0,.8-.235" transform="translate(-33.418 -37.713)"/><path class="a" d="M162.088,71.052h-1.772V64.134h1.772ZM160.014,62.2a1.177,1.177,0,0,1,1.188-1.175,1.161,1.161,0,0,1,1.161,1.175,1.175,1.175,0,0,1-1.161,1.161,1.192,1.192,0,0,1-1.188-1.161" transform="translate(-32.881 -37.807)"/><path class="a" d="M168.331,67.32a1.737,1.737,0,0,0-1.688-1.927,1.933,1.933,0,0,0,0,3.85,1.735,1.735,0,0,0,1.688-1.923m-5.26.013a3.465,3.465,0,0,1,3.572-3.541,3.4,3.4,0,0,1,3.5,3.514,3.457,3.457,0,0,1-3.558,3.541,3.41,3.41,0,0,1-3.514-3.514" transform="translate(-32.578 -37.533)"/><g class="b" transform="translate(138.616 25.76)"><path class="a" d="M177.219,67.028v3.749h-1.84V67.445c0-.235.164-1.98-1.165-2.048-.651-.044-1.813.319-1.813,2.132v3.249h-1.826V63.86h1.41l.238.846h.235a2.634,2.634,0,0,1,2.1-.916c1.786,0,2.659,1.329,2.659,3.239" transform="translate(-170.452 -63.292)"/></g><g class="c"><path class="a" d="M86.96,82.524H44.329V39.9H86.96Zm0,0" transform="translate(-44.329 -39.897)"/></g><path class="d" d="M76.873,60.79h-6.68V53.654m.856,20.4H65.222v2.33l-4.1-5.377c3.122-.574,4.736-2.189,4.736-5a5.535,5.535,0,0,0-.3-1.863h5.488m-17.478,0h4.548c1.866,0,2.625.725,2.625,1.863s-.759,1.883-2.625,1.883H53.571M65.222,55.7v7.71c-1.057-1.786-3.491-2.618-7.1-2.625,3.222-.329,6.2-2.068,7.1-5.085M81.844,44.167H76.873l-6.68,7.116V44.167H60.536v9.446a3.161,3.161,0,0,1-3.484,3.2,3.16,3.16,0,0,1-3.481-3.2V44.167H48.6v9.516c0,4.263,3.441,6.71,7.324,7.106H48.6V77.412h4.971V71.249h2.168l4.6,6.163h21.51V74.056H76.017V64.147h5.827V59.759l-7.123-7.294,7.123-7.271" transform="translate(-43.907 -39.475)"/></g></svg>