<svg xmlns="http://www.w3.org/2000/svg" width="43" height="43" viewBox="0 0 43 43">
  <g id="Group_396" data-name="Group 396" transform="translate(1506 -3102)">
    <g id="Group_385" data-name="Group 385" transform="translate(-2506 1867)">
      <g id="Ellipse_15" data-name="Ellipse 15" transform="translate(1000 1235)" fill="#fff" stroke="#707070" stroke-width="1">
        <circle cx="21.5" cy="21.5" r="21.5" stroke="none"/>
        <circle cx="21.5" cy="21.5" r="21" fill="none"/>
      </g>
    </g>
    <g id="_4831047_achive_achivement_data_files_folder_icon" data-name="4831047_achive_achivement_data_files_folder_icon" transform="translate(-1495.915 3112)">
      <g id="Layer_3" data-name="Layer 3" transform="translate(-0.085)">
        <rect id="Rectangle_835" data-name="Rectangle 835" width="23" height="23" transform="translate(0 0)" fill="none"/>
      </g>
      <g id="Design_Convert" data-name="Design Convert" transform="translate(2.481 2.508)">
        <path id="Path_840" data-name="Path 840" d="M19.161,20.256H12.712a.358.358,0,0,1-.333-.226l-.358-.889a1.075,1.075,0,0,0-1-.677H7.338A.377.377,0,0,1,6.98,18L9.9,8.275A1.791,1.791,0,0,1,11.637,7h8.6a1.791,1.791,0,0,1,1.716,1.275L24.894,18a.36.36,0,0,1-.344.462h-3.7a1.075,1.075,0,0,0-1,.677l-.358.889a.358.358,0,0,1-.33.226Zm-6.205-.717h5.962l.269-.666a1.791,1.791,0,0,1,1.662-1.125h3.207l-2.78-9.265a1.075,1.075,0,0,0-1.039-.767h-8.6a1.075,1.075,0,0,0-1.032.767L7.818,17.748h3.225A1.791,1.791,0,0,1,12.7,18.873Z" transform="translate(-6.968 -7)" fill="#010101"/>
        <path id="Path_841" data-name="Path 841" d="M23.123,44.166H8.791A1.791,1.791,0,0,1,7,42.374V37.358A.358.358,0,0,1,7.358,37h3.687a1.791,1.791,0,0,1,1.662,1.125l.269.667h5.962l.269-.666A1.791,1.791,0,0,1,20.869,37h3.687a.358.358,0,0,1,.358.358v5.016a1.791,1.791,0,0,1-1.791,1.791ZM7.717,37.717v4.658a1.075,1.075,0,0,0,1.075,1.075H23.123A1.075,1.075,0,0,0,24.2,42.374V37.717H20.869a1.075,1.075,0,0,0-1,.677h0l-.358.889a.358.358,0,0,1-.33.226H12.733a.358.358,0,0,1-.333-.226l-.358-.889a1.075,1.075,0,0,0-1-.677Zm11.823.541Z" transform="translate(-6.989 -26.251)" fill="#010101"/>
        <path id="Path_842" data-name="Path 842" d="M28.271,14.791a.358.358,0,0,1-.358-.244l-.258-.831H21l-.258.831a.359.359,0,1,1-.681-.229l.358-1.075A.358.358,0,0,1,20.747,13h7.166a.358.358,0,0,1,.358.244l.358,1.075a.358.358,0,0,1-.244.473.448.448,0,0,1-.115,0Z" transform="translate(-15.361 -10.849)" fill="#010101"/>
        <path id="Path_843" data-name="Path 843" d="M27.7,22.791a.358.358,0,0,1-.358-.244l-.258-.831H19l-.258.831a.359.359,0,0,1-.681-.229l.358-1.075A.358.358,0,0,1,18.747,21h8.6a.358.358,0,0,1,.358.244l.358,1.075a.358.358,0,0,1-.244.473.448.448,0,0,1-.115,0Z" transform="translate(-14.078 -15.983)" fill="#010101"/>
        <path id="Path_844" data-name="Path 844" d="M27.137,30.791a.358.358,0,0,1-.358-.244l-.258-.831H17l-.258.831a.359.359,0,1,1-.681-.229l.358-1.075A.358.358,0,0,1,16.747,29H26.779a.358.358,0,0,1,.358.244l.358,1.075a.358.358,0,0,1-.244.473.448.448,0,0,1-.115,0Z" transform="translate(-12.794 -21.117)" fill="#010101"/>
      </g>
    </g>
  </g>
</svg>
