<svg fill="none" xmlns="http://www.w3.org/2000/svg" viewBox="0 0 200 200">
  <path d="M150.675 147.5H49.345c-4.458 0-8.083-3.626-8.083-8.083V60.583c0-4.457 3.625-8.083 8.083-8.083h101.33c4.458 0 8.084 3.626 8.084 8.083v78.834c0 4.457-3.626 8.083-8.084 8.083ZM49.345 55.531a5.06 5.06 0 0 0-5.052 5.052v78.834a5.061 5.061 0 0 0 5.052 5.052h101.33a5.06 5.06 0 0 0 5.052-5.052V60.583a5.06 5.06 0 0 0-5.052-5.052H49.345Z" fill="#000" />
  <path d="M157.233 73.323H42.757a1.516 1.516 0 0 1-1.515-1.516V60.593c0-4.457 3.625-8.083 8.083-8.083h101.33c4.458 0 8.084 3.626 8.084 8.083v11.214c0 .842-.684 1.516-1.516 1.516h.01Zm-112.95-3.031h111.434v-9.699a5.06 5.06 0 0 0-5.052-5.052H49.335a5.06 5.06 0 0 0-5.052 5.052v9.699Z" fill="#000" />
  <path d="M51.633 64.427c-.396 0-.792-.159-1.07-.446a1.54 1.54 0 0 1-.445-1.07 1.534 1.534 0 0 1 1.823-1.496c.088.03.188.05.277.09.089.04.188.079.267.128.08.05.159.12.238.199.07.069.129.148.188.227.05.08.11.169.149.268.03.089.07.188.079.277.03.11.03.198.03.307 0 .397-.159.793-.436 1.07a1.521 1.521 0 0 1-1.08.446h-.02ZM65.77 64.427c-.11 0-.199-.01-.308-.03-.089-.03-.188-.05-.277-.089-.09-.04-.188-.08-.268-.149-.079-.049-.158-.118-.237-.188-.07-.07-.13-.148-.189-.228-.05-.089-.109-.168-.128-.267a.97.97 0 0 1-.09-.287c-.03-.09-.03-.198-.03-.288 0-.396.16-.792.437-1.08.079-.069.158-.128.237-.188.08-.05.169-.108.268-.128.089-.04.188-.07.277-.09.505-.089 1.02.07 1.377.407.07.079.129.158.188.237.07.08.11.169.149.268.04.089.07.188.09.277 0 .11.029.198.029.307 0 .09 0 .198-.03.288-.03.109-.05.198-.089.287-.04.089-.08.168-.149.267a1.541 1.541 0 0 1-1.258.674ZM58.706 64.427c-.406 0-.792-.159-1.08-.446a1.531 1.531 0 0 1-.435-1.07c0-.396.158-.792.435-1.08.08-.069.15-.128.238-.188.08-.05.169-.109.268-.128.089-.04.188-.07.277-.09.198-.04.396-.04.594 0 .09.03.199.05.288.09.089.03.168.079.267.128.08.05.159.12.228.189.277.287.446.683.446 1.08 0 .089 0 .197-.04.287 0 .109-.04.198-.08.287-.039.09-.088.168-.148.267-.05.08-.118.159-.188.228-.07.07-.149.129-.228.188-.089.07-.168.11-.267.15-.09.039-.198.068-.288.088-.089.01-.198.03-.287.03v-.01ZM81.253 124.726c-3.24 0-6.46-1.407-8.648-4.131a11.05 11.05 0 0 1-2.398-8.143 11.03 11.03 0 0 1 4.072-7.449 10.968 10.968 0 0 1 8.143-2.388 11.032 11.032 0 0 1 7.449 4.072 11 11 0 0 1 2.387 8.143 11.03 11.03 0 0 1-4.071 7.449 11.054 11.054 0 0 1-6.944 2.447h.01Zm-.03-19.139a8.034 8.034 0 0 0-5.042 1.783 7.985 7.985 0 0 0-2.952 5.409 8.016 8.016 0 0 0 1.733 5.914c2.784 3.457 7.866 4.002 11.323 1.218a7.983 7.983 0 0 0 2.952-5.408 8.016 8.016 0 0 0-1.734-5.914 7.985 7.985 0 0 0-5.408-2.952 8.655 8.655 0 0 0-.872-.05Z" fill="#000" />
  <path d="M80.47 137.099c-.149 0-.297 0-.446-.02l-2.575-.278a4.158 4.158 0 0 1-3.685-4.576l.178-1.625a18.245 18.245 0 0 1-3.021-1.654l-1.278 1.03a4.165 4.165 0 0 1-5.845-.624l-1.625-2.021a4.138 4.138 0 0 1-.891-3.051 4.17 4.17 0 0 1 1.525-2.794l1.278-1.03a18.242 18.242 0 0 1-.97-3.299l-1.625-.178a4.172 4.172 0 0 1-2.794-1.525 4.139 4.139 0 0 1-.891-3.051l.277-2.576c.119-1.1.654-2.09 1.526-2.794a4.126 4.126 0 0 1 3.05-.891l1.625.178c.456-1.06 1.01-2.07 1.655-3.021l-1.03-1.278a4.127 4.127 0 0 1-.892-3.051 4.17 4.17 0 0 1 1.525-2.794l2.011-1.624a4.165 4.165 0 0 1 5.845.624l1.03 1.278c1.07-.426 2.18-.753 3.299-.971l.178-1.625a4.164 4.164 0 0 1 4.577-3.685l2.576.278a4.158 4.158 0 0 1 3.685 4.576l-.179 1.625c1.06.455 2.07 1.01 3.022 1.654l1.278-1.03a4.164 4.164 0 0 1 5.844.624l1.625 2.01a4.163 4.163 0 0 1-.624 5.845l-1.278 1.031c.426 1.07.753 2.179.97 3.308l1.625.169c1.11.119 2.1.663 2.794 1.525a4.14 4.14 0 0 1 .891 3.051l-.277 2.576c-.248 2.278-2.308 3.933-4.577 3.685l-1.624-.178c-.456 1.06-1 2.07-1.654 3.021l1.03 1.278a4.126 4.126 0 0 1 .891 3.051 4.17 4.17 0 0 1-1.525 2.794l-2.021 1.624a4.08 4.08 0 0 1-3.051.892 4.17 4.17 0 0 1-2.794-1.526l-1.03-1.278c-1.07.426-2.17.753-3.299.971l-.178 1.625a4.151 4.151 0 0 1-4.131 3.705v.02Zm-9.599-11.581c.327 0 .654.109.931.317a15.174 15.174 0 0 0 4.29 2.338c.663.238 1.08.892 1 1.595l-.297 2.774c-.07.614.376 1.169.99 1.228l2.576.277a1.124 1.124 0 0 0 1.228-.99l.288-2.695a1.528 1.528 0 0 1 1.357-1.436 15.51 15.51 0 0 0 4.646-1.367 1.51 1.51 0 0 1 1.833.416l1.753 2.179c.188.228.456.377.753.406.287.04.584-.049.822-.237l2.01-1.625c.229-.188.377-.456.407-.753.03-.297-.05-.584-.238-.822l-1.753-2.179a1.532 1.532 0 0 1-.02-1.882c1-1.288 1.783-2.725 2.328-4.25.02-.06.05-.129.08-.188a1.52 1.52 0 0 1 1.614-.842l2.685.287a1.114 1.114 0 0 0 1.228-.991l.277-2.575a1.124 1.124 0 0 0-.237-.823 1.128 1.128 0 0 0-.753-.406l-2.774-.297a1.525 1.525 0 0 1-1.347-1.317 15.41 15.41 0 0 0-1.377-4.676 1.51 1.51 0 0 1 .416-1.833l2.18-1.753c.475-.387.554-1.09.168-1.575l-1.625-2.011a1.127 1.127 0 0 0-1.575-.169l-2.17 1.754a1.518 1.518 0 0 1-1.882.02 15.119 15.119 0 0 0-4.28-2.338 1.512 1.512 0 0 1-1-1.595l.297-2.774a1.108 1.108 0 0 0-.99-1.228l-2.576-.278a1.12 1.12 0 0 0-1.228.991l-.297 2.774a1.526 1.526 0 0 1-1.318 1.347c-1.624.208-3.2.664-4.675 1.377a1.523 1.523 0 0 1-1.833-.416l-1.754-2.18a1.127 1.127 0 0 0-1.575-.168l-2.01 1.625a1.12 1.12 0 0 0-.407.753c-.03.297.05.584.238.822l1.753 2.179c.446.545.446 1.328.02 1.882a15.378 15.378 0 0 0-2.338 4.28 1.519 1.519 0 0 1-1.594 1l-2.774-.297c-.297-.03-.585.05-.822.238a1.122 1.122 0 0 0-.407.753l-.277 2.575c-.03.298.05.585.238.823.188.227.456.376.753.406l2.773.297a1.525 1.525 0 0 1 1.348 1.317 15.41 15.41 0 0 0 1.377 4.676 1.51 1.51 0 0 1-.416 1.833l-2.18 1.753a1.083 1.083 0 0 0-.406.753c-.03.297.05.584.238.822l1.624 2.011c.387.486 1.09.555 1.575.169l2.18-1.754a1.49 1.49 0 0 1 .95-.337h-.019v.01ZM122.581 110.491a9.152 9.152 0 0 1-4.319-1.08 9.142 9.142 0 0 1-4.468-5.439 9.128 9.128 0 0 1 .694-7.003 9.135 9.135 0 0 1 5.438-4.468 9.132 9.132 0 0 1 7.004.694c4.468 2.387 6.162 7.974 3.774 12.452-1.654 3.1-4.844 4.863-8.133 4.863v-.019h.01Zm.03-15.365c-.604 0-1.209.09-1.793.268a6.124 6.124 0 0 0-3.646 2.991 6.155 6.155 0 0 0-.465 4.696 6.118 6.118 0 0 0 2.991 3.645 6.17 6.17 0 0 0 8.341-2.526c1.605-2.991.466-6.736-2.526-8.34a6.157 6.157 0 0 0-2.902-.734Z" fill="#000" />
  <path d="M126.266 120.932a3.731 3.731 0 0 1-1.763-.446 3.71 3.71 0 0 1-1.813-2.219l-.347-1.149a15.01 15.01 0 0 1-2.585-.258l-.565 1.06a3.707 3.707 0 0 1-2.219 1.813 3.768 3.768 0 0 1-2.853-.277l-1.931-1.031a3.716 3.716 0 0 1-1.813-2.209 3.76 3.76 0 0 1 .277-2.853l.565-1.06a16.085 16.085 0 0 1-1.655-2.01l-1.159.346a3.76 3.76 0 0 1-2.853-.277 3.711 3.711 0 0 1-1.812-2.219l-.634-2.09a3.746 3.746 0 0 1 2.496-4.666l1.159-.347c0-.872.099-1.733.258-2.585l-1.06-.565a3.741 3.741 0 0 1-1.536-5.062l1.03-1.932a3.692 3.692 0 0 1 2.209-1.813 3.764 3.764 0 0 1 2.853.278l1.06.564a16.089 16.089 0 0 1 2.011-1.654l-.346-1.149a3.755 3.755 0 0 1 .277-2.853 3.708 3.708 0 0 1 2.219-1.813l2.09-.634a3.747 3.747 0 0 1 4.666 2.497l.347 1.159c.871 0 1.733.099 2.585.257l.575-1.06a3.744 3.744 0 0 1 5.062-1.535l1.931 1.03a3.69 3.69 0 0 1 1.813 2.21c.288.96.189 1.97-.277 2.852l-.575 1.07a16.08 16.08 0 0 1 1.655 2.01l1.149-.346c1.971-.594 4.071.515 4.666 2.497l.634 2.09a3.764 3.764 0 0 1-.278 2.853 3.713 3.713 0 0 1-2.219 1.813l-1.159.346c0 .872-.099 1.734-.257 2.586l1.06.564a3.744 3.744 0 0 1 1.535 5.062l-1.03 1.932a3.745 3.745 0 0 1-5.062 1.536l-1.06-.565a16.086 16.086 0 0 1-2.011 1.654l.347 1.149a3.76 3.76 0 0 1-.278 2.853 3.707 3.707 0 0 1-2.219 1.813l-2.09.634a3.72 3.72 0 0 1-1.09.159h.02v-.01Zm-2.803-6.885c.663 0 1.258.436 1.456 1.08l.683 2.258a.66.66 0 0 0 .347.416c.099.05.297.129.535.05l2.09-.634a.658.658 0 0 0 .416-.347c.05-.099.129-.297.05-.535l-.684-2.258a1.519 1.519 0 0 1 .684-1.754 12.948 12.948 0 0 0 3.13-2.565 1.53 1.53 0 0 1 1.853-.337l2.08 1.109c.347.179.773.05.961-.287l1.03-1.922a.715.715 0 0 0-.287-.961l-2.08-1.109a1.511 1.511 0 0 1-.753-1.724 12.57 12.57 0 0 0 .396-4.022 1.507 1.507 0 0 1 1.08-1.545l2.258-.684a.688.688 0 0 0 .416-.346c.05-.1.129-.298.05-.535l-.634-2.09a.712.712 0 0 0-.882-.476l-2.258.684a1.523 1.523 0 0 1-1.754-.694 12.725 12.725 0 0 0-2.565-3.12 1.526 1.526 0 0 1-.337-1.853l1.109-2.08a.665.665 0 0 0 .05-.535.677.677 0 0 0-.347-.416l-1.932-1.03a.713.713 0 0 0-.96.287l-1.11 2.08a1.508 1.508 0 0 1-1.724.753 12.518 12.518 0 0 0-4.022-.396 1.53 1.53 0 0 1-1.545-1.07l-.683-2.258a.708.708 0 0 0-.882-.476l-2.09.634a.659.659 0 0 0-.416.347.688.688 0 0 0-.05.535l.684 2.258a1.518 1.518 0 0 1-.684 1.754 12.717 12.717 0 0 0-3.12 2.565 1.53 1.53 0 0 1-1.853.337l-2.08-1.11a.662.662 0 0 0-.535-.049.676.676 0 0 0-.416.347l-1.03 1.931a.722.722 0 0 0 .287.961l2.08 1.11c.624.337.931 1.05.753 1.724a12.516 12.516 0 0 0-.396 4.021 1.518 1.518 0 0 1-1.07 1.546l-2.259.683a.708.708 0 0 0-.475.882l.634 2.09a.68.68 0 0 0 .337.416c.099.05.297.129.535.05l2.258-.684a1.53 1.53 0 0 1 1.754.684 12.53 12.53 0 0 0 2.565 3.12c.525.466.664 1.229.337 1.853l-1.109 2.08a.665.665 0 0 0-.05.535c.03.109.119.297.347.416l1.932 1.03a.663.663 0 0 0 .534.05.679.679 0 0 0 .417-.347l1.109-2.08a1.52 1.52 0 0 1 1.724-.753c1.317.347 2.664.485 4.022.396h.089v.01Z" fill="#000" />
  <rect x="1" y="1" width="198" height="198" rx="99" stroke="#000" stroke-width="2" />
</svg>