<svg xmlns="http://www.w3.org/2000/svg" width="43" height="43" viewBox="0 0 43 43">
  <g id="Group_407" data-name="Group 407" transform="translate(1506 -2385)">
    <g id="Group_369" data-name="Group 369" transform="translate(-2458 1291)">
      <g id="Ellipse_12" data-name="Ellipse 12" transform="translate(952 1094)" fill="#fff" stroke="#707070" stroke-width="1">
        <circle cx="21.5" cy="21.5" r="21.5" stroke="none"/>
        <circle cx="21.5" cy="21.5" r="21" fill="none"/>
      </g>
      <g id="Group_23" data-name="Group 23" transform="translate(954.363 1097.624)">
        <path id="Path_373" data-name="Path 373" d="M29.829,8.08a10.19,10.19,0,0,0-6.377,2.585l6.377,6.583Z" transform="translate(-11.872 -2.194)" fill="none" stroke="#fff" stroke-width="0.1"/>
        <path id="Path_374" data-name="Path 374" d="M9.835,34.058a10.182,10.182,0,0,0,1.645,5.568L19.425,34,12.65,27A10.169,10.169,0,0,0,9.835,34.058Z" transform="translate(-2.17 -15.676)" fill="none" stroke="#fff" stroke-width="0.1"/>
        <path id="Path_375" data-name="Path 375" d="M43.289,28.215q-.033-.251-.078-.5a10.279,10.279,0,0,0-.248-1.049q-.065-.223-.139-.439c-.107-.314-.23-.627-.367-.93-.06-.134-.122-.263-.186-.392-.141-.281-.3-.561-.466-.832-.073-.116-.147-.234-.226-.349-.193-.283-.4-.561-.621-.823-.087-.1-.177-.207-.268-.31-.2-.222-.418-.442-.645-.653-.1-.093-.2-.184-.3-.273-.233-.2-.477-.394-.726-.572-.112-.082-.225-.16-.34-.236-.272-.181-.544-.344-.811-.487-.126-.069-.254-.134-.382-.2a10.257,10.257,0,0,0-1.013-.428c-.142-.052-.285-.1-.43-.146-.336-.106-.684-.195-1.033-.267-.161-.032-.325-.062-.489-.087a10.276,10.276,0,0,0-1.185-.112c-.065,0-.13-.006-.2-.007V29.485a.437.437,0,0,1-.185.357L24.5,35.83c.144.193.3.389.48.6.088.1.178.2.271.3.2.218.423.434.656.644.1.091.206.181.31.268.29.24.558.443.821.622.094.063.191.123.289.183l.064.04c.272.169.553.326.833.468.127.063.256.127.389.187.285.129.59.248.934.365.144.048.29.1.437.139a10.311,10.311,0,0,0,1.048.252c.165.03.331.054.5.076a10.4,10.4,0,0,0,1.35.093h.03c.189,0,.375-.006.561-.015a10.6,10.6,0,0,0,1.485-.187c.245-.049.494-.109.759-.184A10.311,10.311,0,0,0,37.9,38.8,10.475,10.475,0,0,0,43,32.4c.074-.269.134-.519.183-.761a10.613,10.613,0,0,0,.187-1.485c.009-.185.015-.373.015-.562v-.03A10.739,10.739,0,0,0,43.289,28.215Z" transform="translate(-12.621 -10.065)" fill="none" stroke="#fff" stroke-width="0.1"/>
        <path id="Path_376" data-name="Path 376" d="M27.318,16.44a.438.438,0,0,0,.752-.3V5.438A.438.438,0,0,0,27.633,5a11.079,11.079,0,0,0-7.746,3.139.438.438,0,0,0-.009.619ZM27.195,5.886v9.168L20.817,8.471A10.187,10.187,0,0,1,27.195,5.886Z" transform="translate(-9.237 0)" stroke="#fff" stroke-width="0.1"/>
        <path id="Path_377" data-name="Path 377" d="M18.36,31.465a.439.439,0,0,0-.121-.345L10.8,23.439a.438.438,0,0,0-.307-.133.45.45,0,0,0-.311.123A11.122,11.122,0,0,0,8.842,37.862a.437.437,0,0,0,.61.1l8.726-6.185A.435.435,0,0,0,18.36,31.465ZM9.31,36.993a10.25,10.25,0,0,1,1.17-12.625l6.775,6.994Z" transform="translate(0 -13.043)" stroke="#fff" stroke-width="0.1"/>
        <path id="Path_378" data-name="Path 378" d="M41.857,27.381a11.63,11.63,0,0,0-.1-1.461c-.024-.182-.053-.363-.085-.541a11.35,11.35,0,0,0-.269-1.138c-.046-.16-.1-.319-.151-.476-.116-.341-.25-.681-.4-1.007q-.1-.216-.2-.425c-.153-.305-.323-.608-.506-.9-.08-.129-.161-.256-.245-.379-.209-.307-.435-.607-.672-.891-.094-.113-.191-.225-.29-.335-.218-.242-.453-.48-.7-.708-.108-.1-.217-.2-.329-.295-.252-.218-.517-.427-.785-.62-.122-.089-.245-.175-.369-.256-.292-.195-.589-.373-.88-.528q-.2-.11-.413-.212a11.045,11.045,0,0,0-1.1-.465c-.154-.056-.31-.11-.467-.159a11.146,11.146,0,0,0-1.12-.289c-.175-.036-.351-.067-.53-.1a11.329,11.329,0,0,0-1.285-.121c-.151-.006-.3-.012-.455-.012a.651.651,0,0,0-.651.651V27.076l-8.45,5.989a.65.65,0,0,0-.155.909l.042.056c.184.254.388.511.624.785.1.112.194.222.294.329.219.235.458.469.711.7.11.1.222.195.335.289.313.26.6.48.89.675.1.07.212.137.319.2l.063.039c.294.183.6.352.9.507.14.07.28.138.421.2.31.14.641.269,1.012.4.157.054.314.1.473.151a11.294,11.294,0,0,0,1.136.273c.18.033.36.059.541.083a11.28,11.28,0,0,0,1.451.1h.042q.308,0,.61-.017a11.033,11.033,0,0,0,1.61-.2c.267-.053.536-.117.823-.2a11.207,11.207,0,0,0,2.361-.953,11.41,11.41,0,0,0,2.092-1.467,11.143,11.143,0,0,0,1.014-1.014,11.217,11.217,0,0,0,2.421-4.453c.081-.291.146-.56.2-.823a11.524,11.524,0,0,0,.2-1.611c.01-.2.016-.4.016-.608Zm-.89.594a10.571,10.571,0,0,1-.187,1.485c-.048.242-.108.492-.183.761a10.406,10.406,0,0,1-.88,2.176,10.625,10.625,0,0,1-4.223,4.223,10.326,10.326,0,0,1-2.178.879c-.266.075-.514.135-.759.184a10.6,10.6,0,0,1-1.485.187c-.186.009-.373.017-.561.015h-.03a10.4,10.4,0,0,1-1.35-.093c-.168-.022-.334-.046-.5-.076a10.406,10.406,0,0,1-1.048-.252c-.147-.043-.293-.091-.437-.139-.344-.117-.649-.236-.934-.365-.132-.06-.262-.123-.389-.187-.28-.141-.56-.3-.833-.468l-.064-.04c-.1-.06-.195-.12-.289-.183-.262-.179-.531-.382-.821-.622-.1-.087-.208-.177-.31-.268-.234-.21-.454-.426-.656-.644-.093-.1-.183-.2-.271-.3-.178-.206-.336-.4-.48-.6l8.448-5.988a.437.437,0,0,0,.185-.357V16.945c.065,0,.131,0,.2.007a10.34,10.34,0,0,1,1.185.112c.164.025.328.055.489.087.349.072.7.161,1.033.267.144.045.288.094.43.146a10.258,10.258,0,0,1,1.013.428c.129.063.256.128.382.2.267.143.54.306.811.487.115.076.227.154.34.236.249.179.493.371.726.572.1.089.205.18.3.273.227.211.444.431.645.653.091.1.181.2.268.31.219.263.428.54.621.823.078.115.153.233.226.349.168.272.325.551.466.832.064.129.127.258.186.392.137.3.26.616.367.93q.074.216.139.439a10.279,10.279,0,0,1,.248,1.049c.03.166.056.332.078.5a10.683,10.683,0,0,1,.093,1.35v.03C40.981,27.6,40.976,27.789,40.966,27.975Z" transform="translate(-10.22 -7.884)" stroke="#fff" stroke-width="0.1"/>
      </g>
    </g>
  </g>
</svg>
