<svg xmlns="http://www.w3.org/2000/svg" width="22.728" height="19.859" viewBox="0 0 22.728 19.859">
  <g id="List" transform="translate(0 -2.02)">
    <path id="Path_834" data-name="Path 834" d="M11.69,6.411l13.495.014a.71.71,0,0,0,0-1.421L11.69,4.99a.71.71,0,1,0,0,1.421Z" transform="translate(-3.181 -0.861)" fill="#121313"/>
    <path id="Path_835" data-name="Path 835" d="M25.205,14.994,11.71,14.98a.71.71,0,1,0,0,1.421l13.495.014a.71.71,0,1,0,0-1.421Z" transform="translate(-3.187 -3.755)" fill="#121313"/>
    <path id="Path_836" data-name="Path 836" d="M25.205,24.994,11.71,24.98a.71.71,0,0,0,0,1.421l13.495.014a.71.71,0,0,0,0-1.421Z" transform="translate(-3.187 -6.652)" fill="#121313"/>
    <path id="Path_837" data-name="Path 837" d="M2.834,2.02A2.834,2.834,0,1,0,5.668,4.854,2.834,2.834,0,0,0,2.834,2.02Z" fill="#121313"/>
    <path id="Path_838" data-name="Path 838" d="M2.834,12.02a2.834,2.834,0,1,0,2.834,2.834A2.834,2.834,0,0,0,2.834,12.02Z" transform="translate(0 -2.897)" fill="#121313"/>
    <path id="Path_839" data-name="Path 839" d="M2.834,22a2.834,2.834,0,1,0,2.834,2.834A2.834,2.834,0,0,0,2.834,22Z" transform="translate(0 -5.789)" fill="#121313"/>
  </g>
</svg>
