<?xml version="1.0" standalone="no"?>
<!DOCTYPE svg PUBLIC "-//W3C//DTD SVG 20010904//EN"
 "http://www.w3.org/TR/2001/REC-SVG-20010904/DTD/svg10.dtd">
<svg version="1.0" xmlns="http://www.w3.org/2000/svg"
 width="260.000000pt" height="260.000000pt" viewBox="0 0 260.000000 260.000000"
 preserveAspectRatio="xMidYMid meet">
<metadata>
Created by potrace 1.14, written by Peter Selinger 2001-2017
</metadata>
<g transform="translate(0.000000,260.000000) scale(0.100000,-0.100000)"
fill="#000000" stroke="none">
<path d="M0 1300 l0 -1300 1300 0 1300 0 0 1300 0 1300 -1300 0 -1300 0 0
-1300z m1535 941 c100 -26 261 -104 341 -165 171 -129 299 -318 356 -527 20
-71 23 -108 23 -244 0 -136 -3 -173 -23 -244 -44 -160 -118 -293 -234 -416
-83 -89 -165 -149 -283 -206 -125 -61 -230 -88 -365 -96 -99 -5 -261 9 -288
25 -6 4 21 24 63 46 41 21 111 69 155 107 l80 69 0 -55 c0 -65 7 -67 71 -27
93 59 179 188 233 352 36 107 66 261 66 338 0 36 -3 42 -21 42 -16 0 -20 4
-14 18 12 32 63 246 86 362 l23 115 13 -45 c18 -58 43 -223 43 -277 l0 -43
136 0 136 0 -7 57 c-29 237 -199 485 -416 606 l-50 29 45 -84 c26 -47 46 -90
46 -95 0 -9 -79 -33 -109 -33 -5 0 -27 30 -49 68 -22 37 -57 87 -78 111 -39
45 -117 101 -141 101 -10 0 -13 -42 -15 -182 l-3 -183 -62 -22 -63 -22 0 204
c0 162 -3 205 -13 205 -24 0 -102 -56 -141 -101 -78 -91 -141 -224 -179 -376
l-20 -82 -69 -40 -68 -39 0 24 c0 93 66 309 135 442 l53 102 -49 -27 c-214
-121 -386 -372 -414 -605 l-7 -58 55 0 56 0 -47 -47 c-63 -63 -97 -109 -137
-184 l-33 -62 -12 74 c-18 104 -8 302 20 404 97 357 395 631 763 701 102 19
309 12 412 -15z m195 -473 c0 -40 -67 -349 -99 -460 -106 -363 -259 -626 -450
-772 -69 -53 -119 -79 -194 -101 -83 -24 -103 -16 -45 18 81 47 174 134 243
225 95 126 209 360 277 568 55 166 105 361 95 370 -8 9 -210 -47 -302 -83
-274 -108 -547 -294 -763 -521 l-92 -97 6 50 c40 309 458 590 1175 789 149 42
149 42 149 14z m-604 -550 c-277 -287 -460 -556 -518 -766 l-23 -82 -117 0
-118 0 10 24 c17 45 100 206 141 273 128 208 330 419 519 542 55 35 190 110
200 111 3 0 -39 -46 -94 -102z"/>
<path d="M1856 1154 c-13 -180 -61 -349 -142 -502 l-54 -103 50 28 c216 121
386 369 415 606 l7 57 -134 0 -135 0 -7 -86z"/>
</g>
</svg>
